HIERARCHY
ROOT Hips
{
    OFFSET 0.000000 0.000000 0.000000
    CHANNELS 6 Xposition Yposition Zposition Zrotation Xrotation Yrotation
    JOINT Spine
    {
        OFFSET -0.000000 8.129577 0.000000
        CHANNELS 3 Zrotation Xrotation Yrotation
        JOINT Spine1
        {
            OFFSET -0.000000 26.390701 0.000000
            CHANNELS 3 Zrotation Xrotation Yrotation
            JOINT Neck
            {
                OFFSET -0.000000 26.282320 2.389302
                CHANNELS 3 Zrotation Xrotation Yrotation
                JOINT Head
                {
                    OFFSET -0.000000 13.879765 -1.982823
                    CHANNELS 3 Zrotation Xrotation Yrotation
                    End Site
                    {
                        OFFSET -0.000000 24.785294 0.000000
                    }
                }
            }
            JOINT LeftShoulder
            {
                OFFSET 3.977886 23.574526 -0.273520
                CHANNELS 3 Zrotation Xrotation Yrotation
                JOINT LeftArm
                {
                    OFFSET 13.762619 0.000000 0.000000
                    CHANNELS 3 Zrotation Xrotation Yrotation
                    JOINT LeftForeArm
                    {
                        OFFSET 26.101372 0.000000 0.000000
                        CHANNELS 3 Zrotation Xrotation Yrotation
                        JOINT LeftHand
                        {
                            OFFSET 29.959852 0.000000 0.000000
                            CHANNELS 3 Zrotation Xrotation Yrotation
                            End Site
                            {
                                OFFSET 14.871177 0.000000 0.000000
                            }
                        }
                    }
                }
            }
            JOINT RightShoulder
            {
                OFFSET -3.951699 23.574526 -0.273520
                CHANNELS 3 Zrotation Xrotation Yrotation
                JOINT RightArm
                {
                    OFFSET -13.762619 0.000000 0.000000
                    CHANNELS 3 Zrotation Xrotation Yrotation
                    JOINT RightForeArm
                    {
                        OFFSET -26.101372 0.000000 0.000000
                        CHANNELS 3 Zrotation Xrotation Yrotation
                        JOINT RightHand
                        {
                            OFFSET -29.959852 0.000000 0.000000
                            CHANNELS 3 Zrotation Xrotation Yrotation
                            End Site
                            {
                                OFFSET -14.871177 0.000000 0.000000
                            }
                        }
                    }
                }
            }
        }
    }
    JOINT LeftUpLeg
    {
        OFFSET 9.914117 0.000000 0.000000
        CHANNELS 3 Zrotation Xrotation Yrotation
        JOINT LeftLeg
        {
            OFFSET -0.000000 -41.427933 0.000000
            CHANNELS 3 Zrotation Xrotation Yrotation
            JOINT LeftFoot
            {
                OFFSET -0.000000 -41.025417 0.000000
                CHANNELS 3 Zrotation Xrotation Yrotation
                JOINT LeftToeBase
                {
                    OFFSET -0.000000 -6.444176 14.871177
                    CHANNELS 3 Zrotation Xrotation Yrotation
                    End Site
                    {
                        OFFSET -0.000000 0.000000 3.965647
                    }
                }
            }
        }
    }
    JOINT RightUpLeg
    {
        OFFSET -9.914117 0.000000 0.000000
        CHANNELS 3 Zrotation Xrotation Yrotation
        JOINT RightLeg
        {
            OFFSET -0.000000 -41.427933 0.000000
            CHANNELS 3 Zrotation Xrotation Yrotation
            JOINT RightFoot
            {
                OFFSET -0.000000 -41.025417 0.000000
                CHANNELS 3 Zrotation Xrotation Yrotation
                JOINT RightToeBase
                {
                    OFFSET -0.000000 -6.444176 14.871177
                    CHANNELS 3 Zrotation Xrotation Yrotation
                    End Site
                    {
                        OFFSET -0.000000 0.000000 3.965647
                    }
                }
            }
        }
    }
}
MOTION
Frames:    7
Frame Time:    0.004000
-9.051177    78.510086    -100.508537    -0.635348    4.616998    10.176731    0.016851    8.387094    -3.061458    -1.323733    -7.605161    -3.148244    3.397015    8.194916    -3.752283    0.072103    5.393628    -4.153820    -9.004098    23.236012    8.812106    -37.236855    30.672297    -15.753695    14.779544    -12.487748    -80.119911    -22.535244    -2.889787    14.228841    17.465084    23.903444    -10.747792    38.446304    27.457054    11.571020    -11.476355    -16.365204    68.866219    9.949016    -8.988745    -3.894419    1.412023    -16.923613    7.182294    -0.250186    48.437046    -9.398042    4.610493    -33.258411    12.109451    0.000000    0.000000    0.000000    1.418467    -18.154404    -1.647850    1.199117    47.701828    14.494782    -10.989166    -32.597923    -24.390308    0.000000    0.000000    0.000000    
-8.895446    79.260513    -99.941139    -0.593148    4.572659    10.232044    0.164128    7.835665    -3.185810    -1.556525    -7.442600    -3.275835    3.468568    8.745871    -3.749095    -0.068269    5.621963    -4.151781    -8.663905    23.122833    9.043655    -37.296982    31.148569    -15.258558    14.689837    -12.909103    -81.185219    -22.372772    -3.168228    14.376549    17.034988    23.655949    -10.869910    38.634953    28.020187    10.870509    -11.660122    -16.841068    70.240715    10.354778    -9.169734    -4.002071    1.339831    -15.526227    7.262203    -0.235493    46.278530    -9.424817    3.786980    -31.722395    11.355410    0.000000    0.000000    0.000000    1.097374    -16.843830    -2.007076    1.336122    45.741180    14.510760    -9.907331    -31.144386    -23.469086    0.000000    0.000000    0.000000    
-8.742307    80.004593    -99.429993    -0.455721    4.678318    10.143666    0.120582    7.211722    -3.224719    -1.665613    -7.311101    -3.323561    3.402285    9.231708    -3.763152    -0.123433    5.907359    -4.151576    -8.457457    23.173435    9.356015    -37.238693    31.543207    -14.962998    14.682420    -13.509602    -82.142677    -22.866478    -3.624606    14.314173    16.503740    23.435936    -10.963887    38.942093    27.643595    10.200150    -11.207020    -16.431511    71.868286    10.390149    -8.870318    -4.461858    1.171220    -14.210465    7.243274    -0.474490    43.960270    -8.744211    2.795354    -30.116644    10.246621    0.000000    0.000000    0.000000    0.671791    -15.787084    -2.269319    1.495757    43.899818    14.410978    -8.887283    -29.355488    -21.885828    0.000000    0.000000    0.000000    
-8.552021    80.793587    -98.866089    -0.282871    4.695138    10.158237    0.153182    6.596797    -3.327687    -1.914022    -7.104505    -3.437718    3.484751    9.637701    -3.685778    -0.328965    6.428096    -4.080901    -8.182382    23.071951    9.656344    -37.238674    31.898567    -14.523032    14.540820    -13.909357    -83.214775    -23.487930    -4.077302    14.690471    16.148243    23.497293    -11.164943    38.972523    28.149143    9.755000    -11.394495    -17.016356    73.187004    10.554847    -9.172053    -4.782955    0.904868    -12.840640    7.106322    -0.576022    41.707062    -8.784519    2.098859    -28.149845    9.847354    0.000000    0.000000    0.000000    0.194305    -14.580132    -2.695075    1.564654    42.003727    14.153068    -7.404765    -27.742500    -20.464451    0.000000    0.000000    0.000000    
-8.376577    81.628815    -98.302147    -0.176700    4.737844    10.128201    0.206320    5.957447    -3.389155    -2.083632    -6.931212    -3.504667    3.460427    10.218205    -3.644606    -0.383890    6.716005    -4.021943    -7.941372    22.969883    9.922405    -37.307018    32.174000    -14.034635    14.347346    -14.094419    -84.231720    -23.652111    -4.307539    15.042320    15.688042    23.254721    -11.183392    39.260391    27.933769    8.870781    -11.034844    -16.721630    74.710365    10.629133    -8.902559    -4.705149    0.704074    -11.517181    7.007722    -0.607455    39.433826    -8.627973    1.275842    -25.937967    9.158835    0.000000    0.000000    0.000000    -0.168585    -13.419485    -3.019899    1.618073    40.069981    14.200937    -5.825965    -25.886927    -19.373737    0.000000    0.000000    0.000000    
-8.200842    82.478920    -97.735542    0.013931    4.727367    10.022212    0.150668    5.366820    -3.399922    -2.217428    -6.693805    -3.522576    3.369475    10.785733    -3.645960    -0.344930    6.977090    -3.996570    -7.730340    22.962667    10.200345    -37.289101    32.219395    -13.680161    14.070211    -14.099774    -85.264961    -23.783432    -4.469030    15.588490    15.308178    23.331959    -11.369500    39.350510    27.917048    8.416728    -10.781923    -16.825741    76.139839    10.326751    -9.025892    -5.251029    0.422216    -10.137418    6.914212    -0.649831    37.160488    -8.420256    0.345689    -23.532053    8.583563    0.000000    0.000000    0.000000    -0.568964    -12.208425    -3.021749    1.816159    38.142891    14.061348    -4.111713    -23.980608    -18.976936    0.000000    0.000000    0.000000    
-8.022154    83.351570    -97.169136    0.177818    4.723096    9.947028    0.117209    4.788373    -3.419300    -2.305818    -6.509042    -3.545559    3.284714    11.413073    -3.614638    -0.378052    7.231366    -3.942516    -7.595396    22.946781    10.499991    -37.232357    32.318413    -13.302526    13.900672    -14.232647    -86.282784    -24.396332    -4.715703    16.024988    14.827824    22.994663    -11.285976    39.705669    27.641346    7.293356    -10.105783    -16.445896    77.849014    9.508372    -8.938380    -5.932178    0.152417    -8.822708    6.712934    -0.722055    34.935848    -8.053781    -1.525635    -21.353933    8.110911    0.000000    0.000000    0.000000    -0.957862    -11.054130    -3.197084    1.912453    36.252636    14.118266    -2.533115    -21.701183    -18.208189    0.000000    0.000000    0.000000    
